<svg id="Layer_1" enable-background="new 0 0 512 512" height="512" viewBox="0 0 512 512" width="512" xmlns="http://www.w3.org/2000/svg"><path d="m435 343c0 11.046-8.954 20-20 20-26.53-1.053-26.522-38.951 0-40 11.046 0 20 8.954 20 20zm77 0c0 87.385-80.186 160.766-83.6 163.847-7.573 6.835-19.075 6.875-26.693.096-3.418-3.041-83.707-75.484-83.707-163.943 0-53.486 43.514-97 97-97s97 43.514 97 97zm-40 0c-3.134-75.622-110.881-75.593-114 0 0 50.956 36.522 98.107 56.925 120.47 20.412-22.56 57.075-70.098 57.075-120.47zm40-323v187c-1.056 26.536-38.953 26.516-40 0v-136.653s-276.029 277.34-275.858 277.51l129 129c3.75 3.75 5.857 8.838 5.857 14.142v1c0 11.046-8.954 20-20 20h-290.999c-11.046 0-20-8.954-20-20v-471.999c0-11.046 8.954-20 20-20h472c11.046 0 20 8.954 20 20zm-66.226 20h-145.517c-.199.217-115.972 116-115.972 116l72.961 72.96zm-216.781 217.277-188.993-188.993v378.417zm-72.993-129.561 87.715-87.716h-175.431zm-84.737 344.284h192.452l-95.858-95.858c-.159-.16-96.594 95.858-96.594 95.858z"/></svg>