<svg id="Layer_1" enable-background="new 0 0 512 512" height="512" viewBox="0 0 512 512" width="512" xmlns="http://www.w3.org/2000/svg"><path d="m492 0s-317.482.005-317.496.006c-4.677.114-9.867 2.467-12.483 4.777-.34.3-156.945 155.902-156.979 155.94-3.084 3.473-4.978 8.027-5.04 13.022-.002.085-.002 318.255-.002 318.255 0 11.046 8.954 20 20 20h472c11.046 0 20-8.954 20-20v-472c0-11.046-8.954-20-20-20zm-337 68.064v85.936h-86.494zm317 403.936h-432v-278h135c11.046 0 20-8.954 20-20v-134h277zm-302.443-158.969c-2.933 2.944-4.876 6.729-5.559 10.828l-14.142 84.854c-1.062 6.371 1.019 12.863 5.586 17.43 3.781 3.782 8.881 5.858 14.141 5.858 1.093 0 88.142-14.415 88.142-14.415 4.124-.688 7.93-2.65 10.881-5.612l155.563-156.147c7.785-7.815 7.773-20.458-.027-28.258l-70.71-70.71c-3.751-3.751-8.838-5.858-14.143-5.858h-.019c-5.311.005-10.401 2.122-14.15 5.884zm75.249 66.156-50.891 8.482 8.488-50.932 80.449-80.752 42.427 42.427zm94.509-179.876 42.427 42.426-28.231 28.337-42.427-42.427z"/></svg>